<svg width="107" height="95" viewBox="0 0 107 95" fill="none" xmlns="http://www.w3.org/2000/svg">
<path fill-rule="evenodd" clip-rule="evenodd" d="M47.531 45.8928C44.2497 45.8928 41.5897 48.544 41.5897 51.8145C41.5897 55.0849 44.2497 57.7361 47.531 57.7361C50.8124 57.7361 53.4724 55.0849 53.4724 51.8145C53.4724 48.544 50.8124 45.8928 47.531 45.8928ZM38.619 51.8145C38.619 46.9088 42.6091 42.932 47.531 42.932C52.453 42.932 56.4431 46.9088 56.4431 51.8145C56.4431 56.7201 52.453 60.6969 47.531 60.6969C42.6091 60.6969 38.619 56.7201 38.619 51.8145Z" fill="#1C1C42"/>
<path fill-rule="evenodd" clip-rule="evenodd" d="M47.531 45.8928C44.2497 45.8928 41.5897 48.544 41.5897 51.8145C41.5897 55.0849 44.2497 57.7361 47.531 57.7361C50.8124 57.7361 53.4724 55.0849 53.4724 51.8145C53.4724 48.544 50.8124 45.8928 47.531 45.8928ZM38.619 51.8145C38.619 46.9088 42.6091 42.932 47.531 42.932C52.453 42.932 56.4431 46.9088 56.4431 51.8145C56.4431 56.7201 52.453 60.6969 47.531 60.6969C42.6091 60.6969 38.619 56.7201 38.619 51.8145Z" fill="black" fill-opacity="0.2"/>
<path fill-rule="evenodd" clip-rule="evenodd" d="M47.531 57.7361C48.3514 57.7361 49.0164 58.3989 49.0164 59.2165V68.099C49.0164 68.9166 48.3514 69.5794 47.531 69.5794C46.7107 69.5794 46.0457 68.9166 46.0457 68.099V59.2165C46.0457 58.3989 46.7107 57.7361 47.531 57.7361Z" fill="#1C1C42"/>
<path fill-rule="evenodd" clip-rule="evenodd" d="M47.531 57.7361C48.3514 57.7361 49.0164 58.3989 49.0164 59.2165V68.099C49.0164 68.9166 48.3514 69.5794 47.531 69.5794C46.7107 69.5794 46.0457 68.9166 46.0457 68.099V59.2165C46.0457 58.3989 46.7107 57.7361 47.531 57.7361Z" fill="black" fill-opacity="0.2"/>
<path fill-rule="evenodd" clip-rule="evenodd" d="M17.8242 34.0496C17.0039 34.0496 16.3388 34.7124 16.3388 35.53V76.9814C16.3388 77.799 17.0039 78.4618 17.8242 78.4618H77.2379C78.0582 78.4618 78.7232 77.799 78.7232 76.9814V35.53C78.7232 34.7124 78.0582 34.0496 77.2379 34.0496H17.8242ZM13.3682 35.53C13.3682 33.0772 15.3632 31.0888 17.8242 31.0888H77.2379C79.6989 31.0888 81.6939 33.0772 81.6939 35.53V76.9814C81.6939 79.4342 79.6989 81.4226 77.2379 81.4226H17.8242C15.3632 81.4226 13.3682 79.4342 13.3682 76.9814V35.53Z" fill="#1C1C42"/>
<path fill-rule="evenodd" clip-rule="evenodd" d="M17.8242 34.0496C17.0039 34.0496 16.3388 34.7124 16.3388 35.53V76.9814C16.3388 77.799 17.0039 78.4618 17.8242 78.4618H77.2379C78.0582 78.4618 78.7232 77.799 78.7232 76.9814V35.53C78.7232 34.7124 78.0582 34.0496 77.2379 34.0496H17.8242ZM13.3682 35.53C13.3682 33.0772 15.3632 31.0888 17.8242 31.0888H77.2379C79.6989 31.0888 81.6939 33.0772 81.6939 35.53V76.9814C81.6939 79.4342 79.6989 81.4226 77.2379 81.4226H17.8242C15.3632 81.4226 13.3682 79.4342 13.3682 76.9814V35.53Z" fill="black" fill-opacity="0.2"/>
<path fill-rule="evenodd" clip-rule="evenodd" d="M47.531 7.40222C44.3795 7.40222 41.3571 8.64999 39.1287 10.871C36.9002 13.0921 35.6483 16.1045 35.6483 19.2455V32.5692C35.6483 33.3868 34.9833 34.0496 34.163 34.0496C33.3426 34.0496 32.6776 33.3868 32.6776 32.5692V19.2455C32.6776 15.3192 34.2425 11.5537 37.0281 8.77742C39.8136 6.00112 43.5917 4.44141 47.531 4.44141C51.4704 4.44141 55.2484 6.00112 58.034 8.77742C60.8196 11.5537 62.3845 15.3192 62.3845 19.2455V32.5692C62.3845 33.3868 61.7195 34.0496 60.8991 34.0496C60.0788 34.0496 59.4138 33.3868 59.4138 32.5692V19.2455C59.4138 16.1045 58.1619 13.0921 55.9334 10.871C53.705 8.64999 50.6825 7.40222 47.531 7.40222Z" fill="#1C1C42"/>
<path fill-rule="evenodd" clip-rule="evenodd" d="M47.531 7.40222C44.3795 7.40222 41.3571 8.64999 39.1287 10.871C36.9002 13.0921 35.6483 16.1045 35.6483 19.2455V32.5692C35.6483 33.3868 34.9833 34.0496 34.163 34.0496C33.3426 34.0496 32.6776 33.3868 32.6776 32.5692V19.2455C32.6776 15.3192 34.2425 11.5537 37.0281 8.77742C39.8136 6.00112 43.5917 4.44141 47.531 4.44141C51.4704 4.44141 55.2484 6.00112 58.034 8.77742C60.8196 11.5537 62.3845 15.3192 62.3845 19.2455V32.5692C62.3845 33.3868 61.7195 34.0496 60.8991 34.0496C60.0788 34.0496 59.4138 33.3868 59.4138 32.5692V19.2455C59.4138 16.1045 58.1619 13.0921 55.9334 10.871C53.705 8.64999 50.6825 7.40222 47.531 7.40222Z" fill="black" fill-opacity="0.2"/>
<path d="M83.2664 48.391C93.0855 48.391 101.045 40.4574 101.045 30.6709C101.045 20.8845 93.0855 12.9509 83.2664 12.9509C73.4473 12.9509 65.4873 20.8845 65.4873 30.6709C65.4873 40.4574 73.4473 48.391 83.2664 48.391Z" fill="#27AE60"/>
<path d="M91.4147 26.2412L80.5435 36.5779L75.1172 31.4095" stroke="#F4EFF4" stroke-width="3" stroke-linecap="round" stroke-linejoin="round"/>
</svg>
