<svg width="77" height="92" viewBox="0 0 77 92" fill="none" xmlns="http://www.w3.org/2000/svg">
<path d="M71.6667 90H5.66667C4.69421 90 3.76158 89.6137 3.07394 88.9261C2.38631 88.2384 2 87.3058 2 86.3333V5.66667C2 4.69421 2.38631 3.76158 3.07394 3.07394C3.76158 2.38631 4.69421 2 5.66667 2H72.3333C73.9902 2 75.3333 3.34315 75.3333 5V27.6667V86.3333C75.3333 87.3058 74.947 88.2384 74.2594 88.9261C73.5718 89.6137 72.6391 90 71.6667 90Z" stroke="#1C1C42" stroke-width="3" stroke-linecap="round" stroke-linejoin="round"/>
<path d="M71.6667 90H5.66667C4.69421 90 3.76158 89.6137 3.07394 88.9261C2.38631 88.2384 2 87.3058 2 86.3333V5.66667C2 4.69421 2.38631 3.76158 3.07394 3.07394C3.76158 2.38631 4.69421 2 5.66667 2H72.3333C73.9902 2 75.3333 3.34315 75.3333 5V27.6667V86.3333C75.3333 87.3058 74.947 88.2384 74.2594 88.9261C73.5718 89.6137 72.6391 90 71.6667 90Z" stroke="black" stroke-opacity="0.2" stroke-width="3" stroke-linecap="round" stroke-linejoin="round"/>
<path d="M29.8672 37.2001H65.0672" stroke="#1C1C42" stroke-width="2" stroke-linecap="round" stroke-linejoin="round"/>
<path d="M29.8672 37.2001H65.0672" stroke="black" stroke-opacity="0.2" stroke-width="2" stroke-linecap="round" stroke-linejoin="round"/>
<path d="M29.8672 25.4667H65.0672" stroke="#1C1C42" stroke-width="2" stroke-linecap="round" stroke-linejoin="round"/>
<path d="M29.8672 25.4667H65.0672" stroke="black" stroke-opacity="0.2" stroke-width="2" stroke-linecap="round" stroke-linejoin="round"/>
<path d="M29.8672 48.9334H65.0672" stroke="#1C1C42" stroke-width="2" stroke-linecap="round" stroke-linejoin="round"/>
<path d="M29.8672 48.9334H65.0672" stroke="black" stroke-opacity="0.2" stroke-width="2" stroke-linecap="round" stroke-linejoin="round"/>
<path d="M23.2667 22.5334L16.9051 28.4001L13.7334 25.4667" stroke="#1C1C42" stroke-width="2" stroke-linecap="round" stroke-linejoin="round"/>
<path d="M23.2667 22.5334L16.9051 28.4001L13.7334 25.4667" stroke="black" stroke-opacity="0.2" stroke-width="2" stroke-linecap="round" stroke-linejoin="round"/>
<path d="M23.2667 34.2667L16.9051 40.1334L13.7334 37.2001" stroke="#1C1C42" stroke-width="2" stroke-linecap="round" stroke-linejoin="round"/>
<path d="M23.2667 34.2667L16.9051 40.1334L13.7334 37.2001" stroke="black" stroke-opacity="0.2" stroke-width="2" stroke-linecap="round" stroke-linejoin="round"/>
<path d="M23.2667 46.0001L16.9051 51.8667L13.7334 48.9334" stroke="#1C1C42" stroke-width="2" stroke-linecap="round" stroke-linejoin="round"/>
<path d="M23.2667 46.0001L16.9051 51.8667L13.7334 48.9334" stroke="black" stroke-opacity="0.2" stroke-width="2" stroke-linecap="round" stroke-linejoin="round"/>
</svg>
