<svg width="24" height="20" viewBox="0 0 24 20" fill="none" xmlns="http://www.w3.org/2000/svg">
<path fill-rule="evenodd" clip-rule="evenodd" d="M3.83963 1.01007C4.2496 0.63856 4.88409 0.668677 5.25679 1.07733L20.305 17.5773C20.6777 17.986 20.6475 18.6184 20.2375 18.9899C19.8276 19.3615 19.1931 19.3313 18.8204 18.9227L3.77215 2.42268C3.39945 2.01402 3.42966 1.38157 3.83963 1.01007Z" fill="#878A8C"/>
<path fill-rule="evenodd" clip-rule="evenodd" d="M10.2509 6.5524C10.6236 6.96109 10.5933 7.59354 10.1833 7.96501C9.77128 8.33834 9.4822 8.82721 9.3541 9.36737C9.22601 9.90753 9.26488 10.4737 9.46562 10.9914C9.66636 11.5091 10.0196 11.9542 10.4788 12.2681C10.9381 12.5819 11.4818 12.75 12.0387 12.75H12.0424C12.7265 12.7526 13.3864 12.4983 13.8909 12.0376C14.2994 11.6646 14.934 11.6923 15.3083 12.0995C15.6825 12.5068 15.6547 13.1393 15.2462 13.5124C14.3703 14.3122 13.2244 14.7541 12.0366 14.75C12.036 14.75 12.0353 14.75 12.0347 14.75L12.0385 13.75L12.0384 14.75C12.0378 14.75 12.0372 14.75 12.0366 14.75C11.0754 14.7495 10.1369 14.4594 9.34416 13.9175C8.55093 13.3754 7.94084 12.6067 7.59411 11.7124C7.24738 10.8182 7.18023 9.84026 7.40149 8.90727C7.62275 7.97427 8.12207 7.12985 8.8338 6.48501C9.2438 6.11354 9.87828 6.14371 10.2509 6.5524Z" fill="#878A8C"/>
<path fill-rule="evenodd" clip-rule="evenodd" d="M7.85535 3.98054C8.10507 4.47355 7.90656 5.075 7.41197 5.32393C5.66699 6.20214 4.41285 7.47654 3.58982 8.54784C3.17998 9.08132 2.88264 9.55722 2.68976 9.89554C2.66906 9.93186 2.64958 9.96655 2.63131 9.99953C2.7113 10.1437 2.81445 10.3206 2.9416 10.5219C3.31101 11.1067 3.87731 11.8882 4.65954 12.6679C6.21821 14.2216 8.61017 15.75 12.0386 15.75H12.0468C13.6503 15.763 15.2339 15.3948 16.666 14.6757C17.1609 14.4272 17.7641 14.6256 18.0133 15.1189C18.2626 15.6121 18.0635 16.2134 17.5687 16.4619C15.8528 17.3234 13.9557 17.765 12.0345 17.75C7.94098 17.7488 5.06736 15.9028 3.24078 14.0821C2.33008 13.1743 1.67371 12.2683 1.24369 11.5875C1.02819 11.2463 0.868099 10.9595 0.760158 10.7541C0.70615 10.6513 0.665083 10.5687 0.636559 10.5096C0.622294 10.4801 0.611155 10.4564 0.603093 10.439L0.593297 10.4177L0.590115 10.4107L0.588952 10.4081L0.588476 10.4071C0.588268 10.4066 0.588072 10.4061 1.50482 10C0.587682 9.59474 0.587824 9.59442 0.587972 9.59409L0.58907 9.59163L0.591069 9.58719L0.596907 9.57435L0.616003 9.5333C0.63205 9.49927 0.654773 9.45209 0.684332 9.3931C0.743425 9.27517 0.829993 9.1097 0.945324 8.9074C1.17568 8.50334 1.52259 7.94916 1.99683 7.33186C2.94197 6.1016 4.41532 4.59162 6.50765 3.53858C7.00224 3.28966 7.60562 3.48754 7.85535 3.98054ZM1.50482 10L0.587972 9.59409C0.473068 9.85246 0.473325 10.1488 0.588476 10.4071L1.50482 10ZM2.42077 9.59206C2.42063 9.59176 2.42054 9.59157 2.42077 9.59206V9.59206Z" fill="#878A8C"/>
<path fill-rule="evenodd" clip-rule="evenodd" d="M12.0396 2.25001C16.1348 2.2503 19.0094 4.09672 20.8365 5.9179C21.7472 6.82568 22.4035 7.73172 22.8336 8.41251C23.0491 8.75368 23.2091 9.04055 23.3171 9.24596C23.3711 9.34874 23.4122 9.43133 23.4407 9.49039C23.4549 9.51992 23.4661 9.54359 23.4741 9.56097L23.4839 9.58228L23.4871 9.58931L23.4883 9.5919L23.4888 9.59296C23.489 9.59343 23.4892 9.59387 22.5724 10C23.4892 10.4061 23.4891 10.4064 23.489 10.4066L23.4882 10.4083L23.4869 10.4113L23.4832 10.4193L23.4718 10.4442C23.4623 10.4645 23.4491 10.4924 23.4322 10.5272C23.3983 10.5967 23.3494 10.6941 23.2848 10.815C23.1557 11.0566 22.9637 11.393 22.7043 11.7883C22.187 12.5769 21.3939 13.6125 20.288 14.5985C19.8751 14.9667 19.2409 14.9315 18.8715 14.5198C18.5021 14.1082 18.5374 13.476 18.9504 13.1078C19.8949 12.2657 20.5783 11.3747 21.025 10.6937C21.204 10.421 21.3436 10.1839 21.4457 10C21.3657 9.85597 21.2627 9.67922 21.1356 9.47813C20.7662 8.89329 20.1999 8.11184 19.4177 7.33211C17.859 5.77844 15.4671 4.25001 12.0387 4.25001H12.0367C11.4405 4.24883 10.8454 4.29755 10.2574 4.39566C9.71096 4.48684 9.19382 4.11918 9.10234 3.57448C9.01087 3.02977 9.37971 2.51429 9.92616 2.4231C10.6246 2.30657 11.3315 2.24867 12.0396 2.25001ZM22.5724 10L23.489 10.4066C23.6042 10.1481 23.6041 9.85153 23.4888 9.59296L22.5724 10Z" fill="#878A8C"/>
<path fill-rule="evenodd" clip-rule="evenodd" d="M11.7583 6.12947C11.8614 5.58684 12.3864 5.2303 12.9307 5.33311C13.9447 5.52461 14.8686 6.03965 15.5631 6.80051C16.2576 7.56136 16.685 8.52674 16.7807 9.55096C16.8321 10.1009 16.4266 10.5882 15.8749 10.6394C15.3233 10.6907 14.8344 10.2865 14.7829 9.73655C14.7276 9.14444 14.4805 8.58634 14.079 8.14647C13.6775 7.70661 13.1434 7.40886 12.5572 7.29815C12.0128 7.19534 11.6551 6.6721 11.7583 6.12947Z" fill="#878A8C"/>
</svg>
